<mxfile host="app.diagrams.net" modified="2024-03-27T12:53:15.476Z" agent="Mozilla/5.0 (Windows NT 10.0; Win64; x64) AppleWebKit/537.36 (KHTML, like Gecko) Chrome/121.0.0.0 Safari/537.36 OPR/107.0.0.0 (Edition std-1)" version="24.2.0" etag="wXgZunnSqj672eQfxKc9" type="github">
  <diagram name="Page-1" id="CQnwq8Tlpj8uBIWIOE78">
    <mxGraphModel>
      <root>
        <mxCell id="0" />
        <mxCell id="1" parent="0" />
      </root>
    </mxGraphModel>
  </diagram>
</mxfile>
